HIERARCHY
ROOT Hips
{
	OFFSET 0.000000 100.481300 0.000000
	CHANNELS 6 Xposition Yposition Zposition Xrotation Yrotation Zrotation
	JOINT Spine
	{
		OFFSET -0.279200 12.230698 -2.892100
		CHANNELS 3 Xrotation Yrotation Zrotation
		JOINT Spine1
		{
			OFFSET -0.325700 14.269203 -3.374200
			CHANNELS 3 Xrotation Yrotation Zrotation
			JOINT Spine2
			{
				OFFSET -0.372300 16.307602 -0.352600
				CHANNELS 3 Xrotation Yrotation Zrotation
				JOINT Neck
				{
					OFFSET -0.418800 17.814194 8.416900
					CHANNELS 3 Xrotation Yrotation Zrotation
					JOINT Head
					{
						OFFSET 0.000000 7.031097 3.806800
						CHANNELS 3 Xrotation Yrotation Zrotation
						JOINT HeadTop_End
						{
							OFFSET 0.000000 24.646606 12.978600
							CHANNELS 3 Xrotation Yrotation Zrotation
							End Site
							{
								OFFSET 0.000000 27.854965 0.000000
							}
						}
					}
				}
				JOINT LeftShoulder
				{
					OFFSET 16.952999 14.495407 -7.737500
					CHANNELS 3 Xrotation Yrotation Zrotation
					JOINT LeftArm
					{
						OFFSET 9.308998 -2.777710 0.208600
						CHANNELS 3 Xrotation Yrotation Zrotation
						JOINT LeftForeArm
						{
							OFFSET 29.972298 0.000000 0.000000
							CHANNELS 3 Xrotation Yrotation Zrotation
							JOINT LeftHand
							{
								OFFSET 26.026505 0.000000 0.000000
								CHANNELS 3 Xrotation Yrotation Zrotation
								JOINT LeftHandThumb1
								{
									OFFSET 12.240501 -7.147949 9.207150
									CHANNELS 3 Xrotation Yrotation Zrotation
									JOINT LeftHandThumb2
									{
										OFFSET 4.138618 -2.389435 2.389433
										CHANNELS 3 Xrotation Yrotation Zrotation
										JOINT LeftHandThumb3
										{
											OFFSET 2.726913 -1.574387 1.574386
											CHANNELS 3 Xrotation Yrotation Zrotation
											JOINT LeftHandThumb4
											{
												OFFSET 3.941010 -2.275345 2.275342
												CHANNELS 3 Xrotation Yrotation Zrotation
												End Site
												{
													OFFSET -0.005798 5.087799 0.009903
												}
											}
										}
									}
								}
								JOINT LeftHandIndex1
								{
									OFFSET 24.424698 -1.985611 5.953459
									CHANNELS 3 Xrotation Yrotation Zrotation
									JOINT LeftHandIndex2
									{
										OFFSET 6.426697 0.000000 0.000000
										CHANNELS 3 Xrotation Yrotation Zrotation
										JOINT LeftHandIndex3
										{
											OFFSET 5.337898 0.000000 0.000000
											CHANNELS 3 Xrotation Yrotation Zrotation
											JOINT LeftHandIndex4
											{
												OFFSET 4.409401 0.000000 0.000000
												CHANNELS 3 Xrotation Yrotation Zrotation
												End Site
												{
													OFFSET 0.000000 4.409363 0.014373
												}
											}
										}
									}
								}
								JOINT LeftHandMiddle1
								{
									OFFSET 23.810104 0.000000 0.000000
									CHANNELS 3 Xrotation Yrotation Zrotation
									JOINT LeftHandMiddle2
									{
										OFFSET 7.176498 0.000000 0.000000
										CHANNELS 3 Xrotation Yrotation Zrotation
										JOINT LeftHandMiddle3
										{
											OFFSET 6.774902 0.000000 0.000000
											CHANNELS 3 Xrotation Yrotation Zrotation
											JOINT LeftHandMiddle4
											{
												OFFSET 5.403328 0.000000 0.000000
												CHANNELS 3 Xrotation Yrotation Zrotation
												End Site
												{
													OFFSET -0.027702 5.403244 0.017414
												}
											}
										}
									}
								}
								JOINT LeftHandRing1
								{
									OFFSET 22.908401 -0.839279 -6.020567
									CHANNELS 3 Xrotation Yrotation Zrotation
									JOINT LeftHandRing2
									{
										OFFSET 6.337502 0.000000 0.000000
										CHANNELS 3 Xrotation Yrotation Zrotation
										JOINT LeftHandRing3
										{
											OFFSET 5.779297 0.000000 0.000000
											CHANNELS 3 Xrotation Yrotation Zrotation
											JOINT LeftHandRing4
											{
												OFFSET 4.965698 0.000000 0.000000
												CHANNELS 3 Xrotation Yrotation Zrotation
												End Site
												{
													OFFSET 0.000000 4.965668 0.016186
												}
											}
										}
									}
								}
								JOINT LeftHandPinky1
								{
									OFFSET 20.037003 -1.530319 -10.950146
									CHANNELS 3 Xrotation Yrotation Zrotation
									JOINT LeftHandPinky2
									{
										OFFSET 5.254700 0.000000 0.000000
										CHANNELS 3 Xrotation Yrotation Zrotation
										JOINT LeftHandPinky3
										{
											OFFSET 4.810204 0.000000 0.000000
											CHANNELS 3 Xrotation Yrotation Zrotation
											JOINT LeftHandPinky4
											{
												OFFSET 3.647202 0.000000 0.000000
												CHANNELS 3 Xrotation Yrotation Zrotation
												End Site
												{
													OFFSET 0.000000 3.647186 0.011889
												}
											}
										}
									}
								}
							}
						}
					}
				}
				JOINT RightShoulder
				{
					OFFSET -15.141001 14.495407 -7.737500
					CHANNELS 3 Xrotation Yrotation Zrotation
					JOINT RightArm
					{
						OFFSET -9.308998 -2.777710 0.208500
						CHANNELS 3 Xrotation Yrotation Zrotation
						JOINT RightForeArm
						{
							OFFSET -29.972300 0.000000 0.000000
							CHANNELS 3 Xrotation Yrotation Zrotation
							JOINT RightHand
							{
								OFFSET -26.026505 0.000000 0.000000
								CHANNELS 3 Xrotation Yrotation Zrotation
								JOINT RightHandThumb1
								{
									OFFSET -12.240601 -7.148026 9.207092
									CHANNELS 3 Xrotation Yrotation Zrotation
									JOINT RightHandThumb2
									{
										OFFSET -4.138618 -2.389435 2.389433
										CHANNELS 3 Xrotation Yrotation Zrotation
										JOINT RightHandThumb3
										{
											OFFSET -2.726974 -1.574417 1.574421
											CHANNELS 3 Xrotation Yrotation Zrotation
											JOINT RightHandThumb4
											{
												OFFSET -3.941010 -2.275345 2.275343
												CHANNELS 3 Xrotation Yrotation Zrotation
												End Site
												{
													OFFSET 0.005814 5.087799 0.009927
												}
											}
										}
									}
								}
								JOINT RightHandIndex1
								{
									OFFSET -24.424698 -1.985657 5.953444
									CHANNELS 3 Xrotation Yrotation Zrotation
									JOINT RightHandIndex2
									{
										OFFSET -6.426697 0.000000 0.000000
										CHANNELS 3 Xrotation Yrotation Zrotation
										JOINT RightHandIndex3
										{
											OFFSET -5.337898 0.000000 0.000000
											CHANNELS 3 Xrotation Yrotation Zrotation
											JOINT RightHandIndex4
											{
												OFFSET -4.409401 0.000000 0.000000
												CHANNELS 3 Xrotation Yrotation Zrotation
												End Site
												{
													OFFSET 0.000000 4.409363 0.014408
												}
											}
										}
									}
								}
								JOINT RightHandMiddle1
								{
									OFFSET -23.810097 0.000000 0.000000
									CHANNELS 3 Xrotation Yrotation Zrotation
									JOINT RightHandMiddle2
									{
										OFFSET -7.176498 0.000000 0.000000
										CHANNELS 3 Xrotation Yrotation Zrotation
										JOINT RightHandMiddle3
										{
											OFFSET -6.774902 0.000000 0.000000
											CHANNELS 3 Xrotation Yrotation Zrotation
											JOINT RightHandMiddle4
											{
												OFFSET -5.403328 0.000000 0.000000
												CHANNELS 3 Xrotation Yrotation Zrotation
												End Site
												{
													OFFSET 0.027702 5.403244 0.017457
												}
											}
										}
									}
								}
								JOINT RightHandRing1
								{
									OFFSET -22.908302 -0.839325 -6.020576
									CHANNELS 3 Xrotation Yrotation Zrotation
									JOINT RightHandRing2
									{
										OFFSET -6.337502 0.000000 0.000000
										CHANNELS 3 Xrotation Yrotation Zrotation
										JOINT RightHandRing3
										{
											OFFSET -5.779297 0.000000 0.000000
											CHANNELS 3 Xrotation Yrotation Zrotation
											JOINT RightHandRing4
											{
												OFFSET -4.965698 0.000000 0.000000
												CHANNELS 3 Xrotation Yrotation Zrotation
												End Site
												{
													OFFSET 0.000000 4.965668 0.016226
												}
											}
										}
									}
								}
								JOINT RightHandPinky1
								{
									OFFSET -20.037003 -1.530334 -10.950259
									CHANNELS 3 Xrotation Yrotation Zrotation
									JOINT RightHandPinky2
									{
										OFFSET -5.254700 0.000000 0.000000
										CHANNELS 3 Xrotation Yrotation Zrotation
										JOINT RightHandPinky3
										{
											OFFSET -4.810204 0.000000 0.000000
											CHANNELS 3 Xrotation Yrotation Zrotation
											JOINT RightHandPinky4
											{
												OFFSET -3.647202 0.000000 0.000000
												CHANNELS 3 Xrotation Yrotation Zrotation
												End Site
												{
													OFFSET 0.000000 3.647186 0.011917
												}
											}
										}
									}
								}
							}
						}
					}
				}
			}
		}
	}
	JOINT LeftUpLeg
	{
		OFFSET 15.427100 -6.655098 0.678600
		CHANNELS 3 Xrotation Yrotation Zrotation
		JOINT LeftLeg
		{
			OFFSET 4.081073 -39.591068 13.024000
			CHANNELS 3 Xrotation Yrotation Zrotation
			JOINT LeftFoot
			{
				OFFSET -4.081074 -37.707932 -15.979700
				CHANNELS 3 Xrotation Yrotation Zrotation
				JOINT LeftToeBase
				{
					OFFSET 5.346399 -15.068900 20.645000
					CHANNELS 3 Xrotation Yrotation Zrotation
					JOINT LeftToe_End
					{
						OFFSET 2.754700 0.931300 11.300900
						CHANNELS 3 Xrotation Yrotation Zrotation
						End Site
						{
							OFFSET 0.000000 11.669021 0.000000
						}
					}
				}
			}
		}
	}
	JOINT RightUpLeg
	{
		OFFSET -15.569500 -6.655098 0.678600
		CHANNELS 3 Xrotation Yrotation Zrotation
		JOINT RightLeg
		{
			OFFSET -4.081825 -39.591045 13.023800
			CHANNELS 3 Xrotation Yrotation Zrotation
			JOINT RightFoot
			{
				OFFSET 4.081824 -37.707954 -15.979600
				CHANNELS 3 Xrotation Yrotation Zrotation
				JOINT RightToeBase
				{
					OFFSET -5.346400 -15.068900 20.645000
					CHANNELS 3 Xrotation Yrotation Zrotation
					JOINT RightToe_End
					{
						OFFSET -2.754700 0.931300 11.300900
						CHANNELS 3 Xrotation Yrotation Zrotation
						End Site
						{
							OFFSET 0.000000 11.669021 0.000000
						}
					}
				}
			}
		}
	}
}
MOTION
Frames: 5
Frame Time: 0.033333
0.975162 25.478394 21.390957 3.055771 -1.294697 -2.271169 35.952972 5.224410 1.591124 12.579152 -1.294978 -2.448518 12.737550 -3.482856 1.799316 -27.245063 -1.284511 5.332320 -8.759901 2.311979 -2.737336 0.000001 0.000000 -0.000000 1.527189 -13.850355 -4.397568 5.811057 -38.273286 -1.814999 -0.000001 -26.928545 -0.000005 0.242969 -19.756054 -18.406894 35.508176 -37.260936 -10.059994 -2.852781 51.529515 25.374494 -3.573680 37.502670 36.636561 -0.000003 -0.000000 0.000002 5.496206 8.183871 -85.842774 3.581668 5.394435 -67.142918 1.934748 4.350506 -47.934694 0.000001 0.000001 -0.000000 5.525250 8.191232 -83.680466 3.336160 5.284710 -64.505235 1.820558 4.244961 -46.410794 -0.000001 -0.000000 -0.000001 5.793754 8.207656 -85.421918 3.265871 5.250742 -63.739571 1.871439 4.292677 -47.094605 0.000001 -0.000000 -0.000001 6.089686 8.208780 -91.656009 3.481258 5.351203 -66.070612 1.942561 4.357541 -48.037769 -0.000001 -0.000000 0.000001 0.414385 21.335653 12.069878 -10.208200 31.527375 8.992633 0.000009 24.588464 0.000003 20.022011 15.200238 16.684588 32.505980 27.038866 0.615815 12.433742 -29.190371 -12.958669 -26.424844 -67.051127 -58.492914 -0.000000 0.000000 -0.000000 1.899411 -5.994724 52.900044 3.250678 -4.440149 72.403700 1.771041 -3.656608 51.673677 -0.000001 0.000000 -0.000000 1.607371 -5.755887 48.252186 3.305802 -4.457210 73.114231 1.900421 -3.755077 53.675445 -0.000001 0.000000 -0.000001 1.731018 -5.861864 50.258082 3.228076 -4.432942 72.111512 1.835293 -3.706416 52.674508 -0.000000 -0.000000 0.000000 1.858357 -5.963497 52.264608 1.534690 -3.457048 47.865296 2.142572 -3.921192 57.291681 -0.000001 0.000000 -0.000000 -120.790529 -35.260831 17.908394 126.871816 -23.832058 -3.016576 -5.182196 3.830388 -12.679588 -2.584250 0.000008 0.000004 -0.000000 0.000002 0.000000 -112.190645 31.235336 -25.635592 122.223599 30.005725 9.489525 -8.233939 -1.741524 7.958087 -3.133729 0.000001 -0.000000 0.000000 -0.000001 -0.000000 
1.000706 26.376907 20.896469 5.548676 -1.210757 -2.476646 35.131372 4.797459 1.573966 12.345733 -1.207159 -2.211203 12.480631 -3.210399 1.692068 -28.126459 -1.210046 5.219701 -10.909976 2.521532 -2.437564 0.000001 0.000000 -0.000000 1.377393 -14.464778 -5.442352 5.510629 -37.808068 -0.893544 0.000008 -25.672830 -0.000001 0.604795 -20.686263 -18.720019 35.508180 -37.260932 -10.059996 -2.852788 51.529525 25.374503 -3.573685 37.502673 36.636568 0.000001 -0.000001 -0.000001 5.497258 8.183937 -85.853026 3.582581 5.394819 -67.152576 1.934749 4.350504 -47.934691 -0.000000 -0.000001 -0.000001 5.526548 8.191304 -83.693095 3.337134 5.285176 -64.515761 1.820558 4.244960 -46.410787 0.000000 -0.000002 -0.000000 5.795196 8.207680 -85.436282 3.266788 5.251215 -63.749461 1.871439 4.292677 -47.094602 0.000000 -0.000000 0.000002 6.089687 8.208782 -91.656002 3.481258 5.351203 -66.070606 1.942562 4.357540 -48.037769 -0.000000 0.000000 -0.000000 0.165007 21.379675 13.422413 -10.597190 32.655923 7.905229 0.000001 23.499037 -0.000004 20.708416 15.490845 16.930007 32.505977 27.038866 0.615816 12.433739 -29.190367 -12.958672 -26.424841 -67.051127 -58.492907 0.000004 0.000000 -0.000001 1.899411 -5.994724 52.900051 3.250678 -4.440148 72.403707 1.771040 -3.656608 51.673677 0.000002 0.000000 -0.000001 1.607371 -5.755887 48.252182 3.305803 -4.457210 73.114231 1.900424 -3.755075 53.675441 0.000001 0.000000 0.000000 1.731018 -5.861864 50.258086 3.228076 -4.432941 72.111519 1.835295 -3.706415 52.674508 0.000000 -0.000000 0.000000 1.858357 -5.963497 52.264608 1.534690 -3.457049 47.865293 2.142572 -3.921192 57.291681 0.000002 -0.000000 0.000003 -117.816925 -40.034638 23.231196 122.722435 -28.349189 -8.257186 -5.372584 3.019270 -11.419932 -2.581031 0.000001 -0.000006 0.000000 0.000000 -0.000000 -109.475781 32.192553 -27.787592 119.379617 31.151885 12.257639 -10.184175 -1.608508 7.488647 -2.864774 -0.000000 0.000004 0.000000 -0.000001 -0.000000 
0.963590 27.656906 20.149012 8.262507 -1.007990 -2.690255 34.218384 4.319701 1.536963 12.070308 -1.103773 -1.941340 12.181397 -2.905035 1.578483 -29.095315 -1.162113 5.115050 -12.994659 2.604465 -2.165969 -0.000002 0.000000 -0.000000 1.242453 -15.328234 -6.114672 5.226048 -37.495952 0.018199 0.000007 -23.723141 -0.000009 0.668318 -22.014477 -19.143951 35.508180 -37.260936 -10.059997 -2.852784 51.529519 25.374499 -3.573685 37.502670 36.636571 -0.000000 0.000000 0.000000 5.498329 8.184010 -85.863681 3.583515 5.395206 -67.162657 1.934748 4.350506 -47.934691 -0.000000 0.000000 -0.000001 5.527881 8.191391 -83.706222 3.338153 5.285635 -64.526682 1.820556 4.244961 -46.410790 -0.000001 0.000001 -0.000001 5.796711 8.207705 -85.451247 3.267730 5.251672 -63.759789 1.871439 4.292676 -47.094605 -0.000001 0.000000 0.000000 6.089686 8.208783 -91.656002 3.481259 5.351204 -66.070612 1.942561 4.357542 -48.037772 -0.000001 -0.000000 -0.000001 0.042067 21.261117 14.145873 -10.991760 34.164063 7.275758 -0.000005 22.156985 -0.000003 20.947336 15.699487 17.077452 32.505977 27.038863 0.615816 12.433744 -29.190371 -12.958673 -26.424841 -67.051134 -58.492914 0.000004 0.000000 -0.000001 1.899411 -5.994725 52.900044 3.250679 -4.440150 72.403707 1.771039 -3.656608 51.673677 0.000000 -0.000000 0.000000 1.607371 -5.755887 48.252186 3.305802 -4.457209 73.114231 1.900421 -3.755075 53.675438 0.000000 0.000000 -0.000001 1.731018 -5.861864 50.258082 3.228077 -4.432942 72.111512 1.835295 -3.706417 52.674504 -0.000001 -0.000000 0.000000 1.858357 -5.963497 52.264608 1.534691 -3.457048 47.865290 2.142572 -3.921192 57.291681 -0.000001 -0.000000 0.000000 -116.863553 -39.064919 24.330165 120.362591 -27.544148 -9.641519 -6.501825 2.556916 -10.293430 -2.597088 0.000004 0.000003 -0.000000 0.000001 -0.000000 -108.569777 30.051979 -27.257243 117.849491 29.085961 12.405509 -12.413947 -1.586679 7.155872 -2.236317 -0.000002 -0.000005 0.000000 -0.000000 -0.000000 
0.905508 29.433029 19.170717 11.353331 -0.762334 -2.954179 33.100698 3.847472 1.496837 11.726990 -0.975421 -1.645707 11.814973 -2.560931 1.459845 -30.173170 -1.141107 4.993265 -14.798563 2.515047 -1.940716 -0.000001 -0.000000 -0.000000 1.146677 -16.336897 -6.272793 5.058546 -37.360602 0.766189 -0.000008 -21.425036 -0.000006 0.364402 -23.482595 -19.540270 35.508180 -37.260939 -10.059996 -2.852787 51.529525 25.374505 -3.573685 37.502667 36.636564 0.000001 0.000001 0.000001 5.499464 8.184096 -85.874766 3.584515 5.395639 -67.173121 1.934748 4.350505 -47.934694 -0.000000 -0.000001 -0.000003 5.529273 8.191488 -83.719889 3.339198 5.286144 -64.538095 1.820555 4.244961 -46.410790 -0.000001 -0.000000 0.000000 5.798334 8.207738 -85.466785 3.268705 5.252128 -63.770539 1.871438 4.292678 -47.094605 0.000001 -0.000000 0.000000 6.089686 8.208782 -91.656002 3.481258 5.351203 -66.070612 1.942562 4.357541 -48.037769 0.000002 0.000000 -0.000001 0.038679 20.900454 14.329264 -11.548167 36.099674 7.183290 -0.000010 20.327835 0.000015 20.950909 16.042535 17.073900 32.505973 27.038865 0.615816 12.433749 -29.190374 -12.958675 -26.424844 -67.051127 -58.492914 0.000004 0.000000 -0.000001 1.899411 -5.994725 52.900047 3.250677 -4.440149 72.403700 1.771040 -3.656608 51.673677 0.000000 -0.000000 0.000000 1.607371 -5.755887 48.252189 3.305803 -4.457210 73.114231 1.900423 -3.755076 53.675441 0.000000 -0.000000 -0.000000 1.731018 -5.861864 50.258089 3.228077 -4.432942 72.111512 1.835295 -3.706417 52.674504 -0.000001 0.000000 0.000000 1.858357 -5.963497 52.264604 1.534690 -3.457047 47.865293 2.142572 -3.921191 57.291681 -0.000000 0.000000 -0.000000 -117.328238 -35.016771 23.092422 118.646588 -24.069530 -8.841308 -7.902106 2.202356 -9.046392 -2.659335 -0.000005 -0.000001 0.000000 -0.000000 0.000000 -108.718737 26.114045 -25.374247 116.469520 25.283982 11.206948 -14.451661 -1.620205 6.880764 -1.409608 0.000001 0.000003 0.000000 -0.000000 -0.000000 
0.861247 31.771347 18.019575 14.903681 -0.617914 -3.276040 31.696111 3.422411 1.421859 11.300057 -0.818460 -1.345534 11.366408 -2.180329 1.329290 -31.319433 -1.137583 4.854114 -16.353329 2.295448 -1.779434 -0.000001 0.000000 0.000000 1.092615 -17.217169 -6.066846 4.956144 -37.535544 1.244331 0.000010 -19.108714 0.000019 -0.063294 -24.823288 -19.853886 35.508183 -37.260936 -10.059996 -2.852784 51.529515 25.374494 -3.573686 37.502670 36.636564 -0.000000 -0.000003 -0.000000 5.500615 8.184180 -85.886186 3.585510 5.396052 -67.183879 1.934748 4.350506 -47.934691 0.000000 0.000001 -0.000000 5.530706 8.191583 -83.733966 3.340273 5.286656 -64.549837 1.820555 4.244961 -46.410790 0.000000 0.000001 -0.000000 5.799965 8.207769 -85.482816 3.269732 5.252641 -63.781604 1.871439 4.292678 -47.094598 -0.000000 0.000000 -0.000000 6.089685 8.208783 -91.656002 3.481259 5.351203 -66.070612 1.942562 4.357542 -48.037772 0.000001 0.000000 -0.000003 0.090541 20.376408 14.285493 -12.375230 38.770073 7.529394 -0.000013 17.021134 0.000012 21.041363 17.155425 16.750380 32.505977 27.038863 0.615816 12.433744 -29.190371 -12.958673 -26.424834 -67.051127 -58.492914 0.000001 0.000001 -0.000002 1.899411 -5.994725 52.900044 3.250678 -4.440149 72.403707 1.771041 -3.656608 51.673673 -0.000001 0.000000 0.000000 1.607371 -5.755887 48.252182 3.305803 -4.457211 73.114231 1.900422 -3.755077 53.675445 0.000000 0.000000 -0.000000 1.731018 -5.861864 50.258082 3.228077 -4.432942 72.111512 1.835294 -3.706415 52.674508 0.000001 -0.000000 0.000000 1.858357 -5.963497 52.264604 1.534691 -3.457048 47.865293 2.142572 -3.921190 57.291681 -0.000001 -0.000000 0.000001 -117.805341 -29.967247 21.553949 116.374853 -19.956361 -7.509008 -9.348069 1.881118 -7.647693 -2.750656 0.000005 0.000002 0.000000 0.000001 0.000000 -109.309603 21.362328 -23.151059 114.328528 20.927368 9.650613 -15.916668 -1.651882 6.561204 -0.712284 0.000001 0.000001 0.000000 -0.000001 -0.000000 
